<svg xmlns="http://www.w3.org/2000/svg" viewBox="0 0 500 500" width="100%" height="100%" opacity="0.35">
  <g fill="none" stroke="#ffffff" stroke-width="1.4" stroke-linecap="round" stroke-linejoin="round">
    
    <!-- LILY 1 (LEFT) -->
    <g transform="translate(190, 200)">
      <path d="M 0 0 C -35 -55, -90 -45, -75 10 C -35 25, -10 15, 0 0 Z" />
      <path d="M 0 0 C 40 -50, 80 -25, 55 25 C 25 25, 10 10, 0 0 Z" />
      <path d="M 0 0 C 25 50, -15 80, -50 40 C -30 15, -10 10, 0 0 Z" />
      <path d="M 0 0 C -55 30, -90 -10, -65 -40 C -30 -20, -10 -10, 0 0 Z" />
      <path d="M 0 0 Q -10 -25 -25 -30" />
      <path d="M 0 0 Q 10 -25 15 -35" />
      <circle cx="-25" cy="-30" r="2" fill="#ffffff" />
      <circle cx="15" cy="-35" r="2" fill="#ffffff" />
    </g>

    <!-- LILY 2 (RIGHT) -->
    <g transform="translate(310, 230)">
      <path d="M 0 0 C -25 -50, -75 -40, -60 10 C -25 20, -10 10, 0 0 Z" />
      <path d="M 0 0 C 45 -40, 75 -10, 50 30 C 20 25, 10 10, 0 0 Z" />
      <path d="M 0 0 C 25 50, -10 75, -40 35 C -25 10, -10 10, 0 0 Z" />
      <path d="M 0 0 C -50 25, -75 -10, -55 -40 C -25 -20, -10 -10, 0 0 Z" />
      <path d="M 0 0 Q -8 -22 -16 -28" />
      <path d="M 0 0 Q 12 -22 18 -28" />
      <circle cx="-16" cy="-28" r="2" fill="#ffffff" />
      <circle cx="18" cy="-28" r="2" fill="#ffffff" />
    </g>

    <!-- STEMS -->
    <path d="M 185 210 C 200 280, 260 330, 330 380" stroke-width="1.8" />
    <path d="M 305 240 C 290 300, 230 340, 170 380" stroke-width="1.8" />

  </g>
</svg>
